<svg xmlns="http://www.w3.org/2000/svg" width="353.69" height="63.39" viewBox="0 0 353.69 63.39">
    <g data-name="Jane Dutton Logo-01">
        <path data-name="Path 45" d="M32.91 54.72h24.21a2.313 2.313 0 0 0 2.36-2.3V29.79a5.244 5.244 0 0 1 10.48.02v17.26a2.369 2.369 0 0 0 2.31 2.43h2.81V29.79a10.115 10.115 0 0 0-9.8-9.92v-.03H40.79a2.337 2.337 0 0 0-2.36 2.32v22.63a5.244 5.244 0 0 1-10.48-.02V27.51a2.369 2.369 0 0 0-2.31-2.43h-2.81v19.71a10.13 10.13 0 0 0 10.08 9.93zm10.93-27.27a2.736 2.736 0 0 1 2.79-2.68h2.42a5.148 5.148 0 0 1 5.25 5.04l-.07 14.96a5.146 5.146 0 0 1-5.24 5.04H46.6a2.736 2.736 0 0 1-2.79-2.68l.03-19.68z" style="fill:#fff" transform="translate(-4.89 -4)"/>
        <path data-name="Path 46" d="M116.97 37.88c0 .94-.52 1.41-1.55 1.41a1.818 1.818 0 0 1-1.01-.24 2.206 2.206 0 0 1-.67-.78l-2.36 1.36a4.164 4.164 0 0 0 4.02 2.31 4.443 4.443 0 0 0 3.09-1.08 3.8 3.8 0 0 0 1.2-2.98V29.8h-2.72v8.08z" style="fill:#fff" transform="translate(-4.89 -4)"/>
        <path data-name="Path 47" d="M115.41 41.94z" style="fill:#fff" transform="translate(-4.89 -4)"/>
        <path data-name="Path 48" d="m125.88 29.8-4.05 11.9h2.98l.59-1.87h4.42l.59 1.87h2.99l-4.05-11.9h-3.47zm.34 7.48 1.39-4.37 1.39 4.37h-2.78z" style="fill:#fff" transform="translate(-4.89 -4)"/>
        <path data-name="Path 49" d="m142.56 36.26-4.59-6.46h-2.04v11.9h2.72v-6.46l4.59 6.46h2.04V29.8h-2.72z" style="fill:#fff" transform="translate(-4.89 -4)"/>
        <path data-name="Path 50" d="M151.58 36.97h4.25v-2.58h-4.25v-1.97h4.67V29.8h-7.4v11.9h7.48v-2.62h-4.75z" style="fill:#fff" transform="translate(-4.89 -4)"/>
        <path data-name="Path 51" d="M169.93 29.8h-4.76v11.9h4.76a5.5 5.5 0 0 0 4.12-1.71 6.245 6.245 0 0 0 0-8.48 5.5 5.5 0 0 0-4.12-1.71zm2.29 8.37a3.036 3.036 0 0 1-2.29.91h-2.04v-6.66h2.04a3.02 3.02 0 0 1 2.29.91 3.3 3.3 0 0 1 .88 2.42 3.362 3.362 0 0 1-.88 2.42z" style="fill:#fff" transform="translate(-4.89 -4)"/>
        <path data-name="Path 52" d="M185.06 37.62c0 1.12-.62 1.67-1.87 1.67s-1.87-.56-1.87-1.67V29.8h-2.72v8.06a3.72 3.72 0 0 0 1.29 2.97 5.46 5.46 0 0 0 6.6 0 3.693 3.693 0 0 0 1.29-2.97V29.8h-2.72z" style="fill:#fff" transform="translate(-4.89 -4)"/>
        <path data-name="Path 53" d="M190.42 32.42h3.06v9.28h2.72v-9.28h3.06V29.8h-8.84z" style="fill:#fff" transform="translate(-4.89 -4)"/>
        <path data-name="Path 54" d="M201.13 32.42h3.06v9.28h2.72v-9.28h3.06V29.8h-8.84z" style="fill:#fff" transform="translate(-4.89 -4)"/>
        <path data-name="Path 55" d="M217.68 29.56a6.216 6.216 0 0 0-4.39 10.59 6.216 6.216 0 0 0 8.78-8.8 5.975 5.975 0 0 0-4.39-1.79zm2.47 8.74a3.576 3.576 0 0 1-4.94 0 3.779 3.779 0 0 1 0-5.1 3.576 3.576 0 0 1 4.94 0 3.779 3.779 0 0 1 0 5.1z" style="fill:#fff" transform="translate(-4.89 -4)"/>
        <path data-name="Path 56" d="m233.56 36.26-4.59-6.46h-2.04v11.9h2.72v-6.46l4.59 6.46h2.04V29.8h-2.72z" style="fill:#fff" transform="translate(-4.89 -4)"/>
        <path data-name="Path 57" d="m252.26 36.26-4.59-6.46h-2.04v11.9h2.72v-6.46l4.59 6.46h2.04V29.8h-2.72z" style="fill:#fff" transform="translate(-4.89 -4)"/>
        <path data-name="Path 58" d="M261.28 36.97h4.25v-2.58h-4.25v-1.97h4.67V29.8h-7.4v11.9h7.48v-2.62h-4.75z" style="fill:#fff" transform="translate(-4.89 -4)"/>
        <path data-name="Path 59" d="M268.24 32.42h3.06v9.28h2.72v-9.28h3.06V29.8h-8.84z" style="fill:#fff" transform="translate(-4.89 -4)"/>
        <path data-name="Path 60" d="m290.66 38.13-2.29-8.33h-2.21l-2.29 8.33-2.06-8.33h-2.86l3.28 11.9h3.1l1.94-7.02 1.94 7.02h3.09l3.28-11.9h-2.86z" style="fill:#fff" transform="translate(-4.89 -4)"/>
        <path data-name="Path 61" d="M303.46 29.56a6.216 6.216 0 0 0-4.39 10.59 6.216 6.216 0 0 0 8.78-8.8 5.975 5.975 0 0 0-4.39-1.79zm2.47 8.74a3.576 3.576 0 0 1-4.94 0 3.779 3.779 0 0 1 0-5.1 3.576 3.576 0 0 1 4.94 0 3.779 3.779 0 0 1 0 5.1z" style="fill:#fff" transform="translate(-4.89 -4)"/>
        <path data-name="Path 62" d="M320.96 35.89a3.59 3.59 0 0 0 .6-2.01 4.063 4.063 0 0 0-4.08-4.08h-4.76v11.9h2.72v-3.91h1.29l2.24 3.91h2.93l-2.53-4.37a4.086 4.086 0 0 0 1.59-1.44zm-2.53-.92a1.274 1.274 0 0 1-.96.44h-2.04v-3.06h2.04a1.274 1.274 0 0 1 .96.44 1.562 1.562 0 0 1 .4 1.09 1.545 1.545 0 0 1-.4 1.09z" style="fill:#fff" transform="translate(-4.89 -4)"/>
        <path data-name="Path 63" d="M334.15 29.8h-3.09l-3.64 5.17V29.8h-2.72v11.9h2.72v-5.51l3.81 5.51h3.09l-4.18-6.1z" style="fill:#fff" transform="translate(-4.89 -4)"/>
        <path data-name="Path 64" d="M342.19 4H4.89v46.09c0 9.54 7.35 17.3 16.39 17.3h320.91c9.03 0 16.39-7.76 16.39-17.29V21.3c0-9.54-7.35-17.3-16.39-17.3zM91.36 65.65H21.28c-8.13 0-14.74-6.98-14.74-15.56V5.74h84.82zm250.83 0H93.36V5.74h248.83c8.13 0 14.74 6.98 14.74 15.56v28.79c0 8.58-6.61 15.56-14.74 15.56z" style="fill:#fff" transform="translate(-4.89 -4)"/>
    </g>
</svg>
