<svg xmlns="http://www.w3.org/2000/svg" viewBox="0 0 790.819 528.186">
    <defs>
        <clipPath id="v0fgnye7gb">
            <path style="fill:url(#ik6spbntta)" d="M0 0h755.61v504.414H0z"/>
        </clipPath>
        <clipPath id="fg5h6l371c">
            <path style="stroke:#fff;stroke-width:4px;fill:none" d="M0 0h790.819v528.186H0z"/>
        </clipPath>
        <clipPath id="si3frpm7od">
            <path style="fill:none" d="M0 0h61.484v99.047H0z"/>
        </clipPath>
        <linearGradient id="ik6spbntta" x1=".5" x2=".5" y2="1" gradientUnits="objectBoundingBox">
            <stop offset="0" stop-color="#ff3600"/>
            <stop offset="1" stop-color="#efa30a"/>
        </linearGradient>
    </defs>
    <g>
        <g style="clip-path:url(#v0fgnye7gb)" transform="translate(8.161 11.886)">
            <path d="M454.121 360.325c0 40.234-33.926 72.87-75.777 72.87h-34.521c-22.272 0-40.312-17.378-40.279-38.8l.45-284.493c.033-21.372 18.063-38.684 40.29-38.684h35.026c41.861 0 75.788 32.622 75.788 72.879zM613.857.381V0H259.773c-20.2 0-34.161 15.739-34.161 35.161v325.434h.011c-.158 40.122-34.015 72.6-75.776 72.6-41.852 0-75.789-32.636-75.789-72.87h-.023v-249.5c0-19.423-14.492-35.161-34.689-35.161H.034l-.022 35.162H0v249.769c0 78.2 64.944 141.674 145.771 143.627v.191h350.065c20.2 0 34.162-15.738 34.162-35.16V143.819c.146-40.123 34.015-72.6 75.765-72.6 41.863 0 75.788 32.634 75.788 72.879h.023v249.49c0 19.422 14.5 35.161 34.689 35.161h39.314l.023-35.161h.011V143.819c0-76.9-62.81-139.507-141.752-143.438" style="fill:url(#ik6spbntta)"/>
        </g>
    </g>
    <g style="opacity:.27">
        <g style="clip-path:url(#fg5h6l371c)">
            <path d="M518.815 528.186H152.408v-.209c-40.891-1.084-79.15-17.161-107.774-45.295C15.852 454.393 0 417.009 0 377.417V115.87h.012l.024-36.761h41.507c20.906 0 36.672 15.977 36.672 37.164V376.73l.023.4c0 41.787 35.365 75.783 78.835 75.783 43.184 0 78.47-33.689 78.821-75.168l-.01-.333V37.164C235.884 15.977 251.412 0 272 0h370.613v.418c83.139 4.33 148.206 70.3 148.206 150.351v261.547h-.012l-.023 36.761h-41.508c-20.906 0-36.672-15.978-36.672-37.164V151.467l-.023-.4c0-41.794-35.365-75.795-78.834-75.795-43.306 0-78.66 33.87-78.811 75.5v340.25c0 21.188-15.529 37.165-36.12 37.165m-365.6-.807h365.6c20.131 0 35.313-15.631 35.313-36.358V150.769c.153-42.077 35.87-76.308 79.619-76.308 43.775 0 79.414 34.144 79.64 76.2l.023.4v260.851c0 20.727 15.419 36.357 35.865 36.357h40.7l.035-36.761V150.769c0-79.742-64.932-145.438-147.823-149.564l-.383-.019V.807H272c-20.131 0-35.313 15.63-35.313 36.357v339.849l.01.405c-.165 42.076-35.887 76.307-79.631 76.307-43.775 0-79.414-34.139-79.64-76.187l-.023-.4V116.274c0-20.727-15.419-36.357-35.865-36.357H.842l-.035 36.76v260.74c0 81.918 66.773 147.7 152.014 149.763l.394.01zm242.757-73.654h-36.092a42.976 42.976 0 0 1-30.666-12.57 39.9 39.9 0 0 1-11.851-28.4l.469-297.446c.036-22.525 19.115-40.849 42.529-40.849h36.62c43.914 0 79.641 34.363 79.641 76.6L475.6 377.136c0 42.231-35.722 76.589-79.631 76.589M360.362 75.268c-22.971 0-41.687 17.963-41.722 40.043l-.469 297.447a39.107 39.107 0 0 0 11.615 27.826 42.179 42.179 0 0 0 30.1 12.333h36.092c43.463 0 78.824-34 78.824-75.783l1.02-226.071c0-41.792-35.365-75.793-78.834-75.793z" style="fill:#fff;stroke:#fff;stroke-width:4px"/>
        </g>
    </g>
    <path d="M46.192 0 34.9 20.591 23.6 0 9.538 8.537l13.055 18.579L0 25.861v16.068l22.594-1L9.538 59.252 23.6 67.789 34.9 47.2l11.3 20.586 14.3-8.534-13.3-18.324 22.847 1V25.861L47.2 27.116 60.5 8.537z" transform="translate(581.606 132.128)" style="stroke:#f2eddd;stroke-width:3px;fill:none"/>
    <g>
        <g style="clip-path:url(#si3frpm7od)" transform="rotate(90 43.169 449.984)">
            <path d="M3.978 0A3.978 3.978 0 1 1 0 3.978 3.978 3.978 0 0 1 3.978 0" transform="translate(0 61.769)" style="fill:#fff"/>
            <path d="M3.978 0A3.978 3.978 0 1 1 0 3.978 3.978 3.978 0 0 1 3.978 0" transform="translate(0 30.498)" style="fill:#fff"/>
            <path d="M3.978 0A3.978 3.978 0 1 1 0 3.978 3.978 3.978 0 0 1 3.978 0" style="fill:#fff"/>
            <path d="M3.978 0A3.978 3.978 0 1 1 0 3.978 3.978 3.978 0 0 1 3.978 0" transform="translate(26.52 61.769)" style="fill:#fff"/>
            <path d="M3.978 0A3.978 3.978 0 1 1 0 3.978 3.978 3.978 0 0 1 3.978 0" transform="translate(0 91.092)" style="fill:#fff"/>
            <path d="M3.978 0A3.978 3.978 0 1 1 0 3.978 3.978 3.978 0 0 1 3.978 0" transform="translate(26.52 91.092)" style="fill:#fff"/>
            <path d="M3.978 0A3.978 3.978 0 1 1 0 3.978 3.978 3.978 0 0 1 3.978 0" transform="translate(26.52 30.498)" style="fill:#fff"/>
            <path d="M3.978 0A3.978 3.978 0 1 1 0 3.978 3.978 3.978 0 0 1 3.978 0" transform="translate(26.52)" style="fill:#fff"/>
            <path d="M3.978 0A3.978 3.978 0 1 1 0 3.978 3.978 3.978 0 0 1 3.978 0" transform="translate(53.528 61.769)" style="fill:#fff"/>
            <path d="M3.978 0A3.978 3.978 0 1 1 0 3.978 3.978 3.978 0 0 1 3.978 0" transform="translate(53.528 91.092)" style="fill:#fff"/>
            <path d="M3.978 0A3.978 3.978 0 1 1 0 3.978 3.978 3.978 0 0 1 3.978 0" transform="translate(53.528 30.498)" style="fill:#fff"/>
            <path d="M3.978 0A3.978 3.978 0 1 1 0 3.978 3.978 3.978 0 0 1 3.978 0" transform="translate(53.528)" style="fill:#fff"/>
        </g>
    </g>
</svg>
