<svg xmlns="http://www.w3.org/2000/svg" width="65.381" height="65.381" viewBox="0 0 65.381 65.381">
    <g data-name="Group 84">
        <path data-name="Path 37" d="M849.9 88.072a3.833 3.833 0 1 0 3.833 3.833 3.833 3.833 0 0 0-3.833-3.833" transform="translate(-799.904 -76.398)" style="fill:#fff"/>
        <path data-name="Path 38" d="M719.081 112.07a16.1 16.1 0 1 0 16.1 16.1 16.12 16.12 0 0 0-16.1-16.1m0 26.415a10.314 10.314 0 1 1 10.314-10.314 10.325 10.325 0 0 1-10.314 10.314" transform="translate(-686.122 -95.481)" style="fill:#fff"/>
        <path data-name="Path 39" d="M666.422 96.46h-26.1a19.661 19.661 0 0 1-19.642-19.638v-26.1a19.66 19.66 0 0 1 19.638-19.638h26.1a19.661 19.661 0 0 1 19.639 19.638v26.1a19.661 19.661 0 0 1-19.635 19.638m-26.1-59.23a13.5 13.5 0 0 0-13.488 13.487v26.1a13.5 13.5 0 0 0 13.488 13.488h26.1a13.5 13.5 0 0 0 13.488-13.483v-26.1a13.5 13.5 0 0 0-13.488-13.492z" transform="translate(-620.68 -31.079)" style="fill:#fff"/>
    </g>
</svg>
