<svg xmlns="http://www.w3.org/2000/svg" width="62.98" height="62.834" viewBox="0 0 62.98 62.834">
    <g data-name="Group 85">
        <path data-name="Path 41" d="M2103.7 20.859h13.067v41.975H2103.7zM2110.233 0a7.565 7.565 0 1 1-7.575 7.559A7.565 7.565 0 0 1 2110.233 0" transform="translate(-2102.659)" style="fill:#fff"/>
        <path data-name="Path 42" d="M2211.495 97.8h12.515v5.742h.171c1.745-3.3 6-6.781 12.355-6.781 13.21 0 15.646 8.688 15.646 19.993v23.022h-13.038v-20.407c0-4.872-.1-11.131-6.781-11.131-6.792 0-7.828 5.3-7.828 10.776v20.763h-13.04z" transform="translate(-2189.202 -76.942)" style="fill:#fff"/>
    </g>
</svg>
